HIERARCHY
ROOT Hips
{
  OFFSET 13.6774 106.653 -34.4427
  CHANNELS 6 Xposition Yposition Zposition Zrotation Xrotation Yrotation
  JOINT ToSpine
  {
    OFFSET -2.69724 7.43032 -0.144315
    CHANNELS 3 Zrotation Xrotation Yrotation
    JOINT Spine
    {
      OFFSET -0.0310711 10.7595 1.96963
      CHANNELS 3 Zrotation Xrotation Yrotation
      JOINT Spine1
      {
        OFFSET 19.9056 3.91189 0.764692
        CHANNELS 3 Zrotation Xrotation Yrotation
        JOINT Neck
        {
          OFFSET 25.9749 7.03908 -0.130764
          CHANNELS 3 Zrotation Xrotation Yrotation
          JOINT Head
          {
            OFFSET 9.52751 0.295786 -0.907742
            CHANNELS 3 Zrotation Xrotation Yrotation
            End Site
            {
              OFFSET 16.4037 0.713936 2.7358
            }
          }
        }
        JOINT LeftShoulder
        {
          OFFSET 17.7449 4.33886 11.7777
          CHANNELS 3 Zrotation Xrotation Yrotation
          JOINT LeftArm
          {
            OFFSET 0.911315 1.27913 9.80584
            CHANNELS 3 Zrotation Xrotation Yrotation
            JOINT LeftForeArm
            {
              OFFSET 28.6126 1.18197 -3.53199
              CHANNELS 3 Zrotation Xrotation Yrotation
              JOINT LeftHand
              {
                OFFSET 27.5088 0.0218783 0.327423
                CHANNELS 3 Zrotation Xrotation Yrotation
                End Site
                {
                  OFFSET 18.6038 -0.000155887 0.382096
                }
              }
            }
          }
        }
        JOINT RightShoulder
        {
          OFFSET 17.1009 2.89543 -12.2328
          CHANNELS 3 Zrotation Xrotation Yrotation
          JOINT RightArm
          {
            OFFSET 1.4228 0.178766 -10.211
            CHANNELS 3 Zrotation Xrotation Yrotation
            JOINT RightForeArm
            {
              OFFSET 28.733 1.87905 2.64907
              CHANNELS 3 Zrotation Xrotation Yrotation
              JOINT RightHand
              {
                OFFSET 27.4588 0.290562 -0.101845
                CHANNELS 3 Zrotation Xrotation Yrotation
                End Site
                {
                  OFFSET 17.8396 -0.255518 -0.000602873
                }
              }
            }
          }
        }
      }
    }
  }
  JOINT LeftUpLeg
  {
    OFFSET -5.61296 -2.22332 -10.2353
    CHANNELS 3 Zrotation Xrotation Yrotation
    JOINT LeftLeg
    {
      OFFSET 2.56703 -44.7417 -7.93097
      CHANNELS 3 Zrotation Xrotation Yrotation
      JOINT LeftFoot
      {
        OFFSET 3.16933 -46.5642 -3.96578
        CHANNELS 3 Zrotation Xrotation Yrotation
        JOINT LeftToeBase
        {
          OFFSET 0.346054 -6.02161 12.8035
          CHANNELS 3 Zrotation Xrotation Yrotation
          End Site
          {
            OFFSET 0.134235 -1.35082 5.13018
          }
        }
      }
    }
  }
  JOINT RightUpLeg
  {
    OFFSET -5.7928 -1.72406 10.6446
    CHANNELS 3 Zrotation Xrotation Yrotation
    JOINT RightLeg
    {
      OFFSET -2.57161 -44.7178 -7.85259
      CHANNELS 3 Zrotation Xrotation Yrotation
      JOINT RightFoot
      {
        OFFSET -3.10148 -46.5936 -4.03391
        CHANNELS 3 Zrotation Xrotation Yrotation
        JOINT RightToeBase
        {
          OFFSET -0.0828122 -6.13587 12.8035
          CHANNELS 3 Zrotation Xrotation Yrotation
          End Site
          {
            OFFSET -0.131328 -1.35082 5.13018
          }
        }
      }
    }
  }
}
MOTION
Frames: 21
Frame Time: 0.03333333333333333
0.0000 93.1000 0.0000 69.8595 -20.9733 -12.5750 -71.0064 -0.7213 88.0024 92.4362 70.0370 -8.3056 -1.0758 17.7062 7.0465 -138.0272 32.0086 172.1337 -173.3547 72.0429 -165.2555 -0.4114 -12.1935 -21.7111 -72.9801 37.2446 -140.8185 7.6567 -3.0570 -106.1895 -0.1272 -0.5580 -0.1190 -1.6218 5.2835 31.0228 -125.8477 -18.5994 89.9421 9.6167 5.3876 118.4606 0.1490 0.5170 -0.0625 -48.1706 15.8195 95.7603 -3.2672 35.1293 -8.1398 -5.6365 -6.5003 -0.4094 4.1585 -11.3473 8.6876 -36.1336 -13.2783 85.7166 2.8314 54.1509 1.9626 -4.2053 -20.6450 0.7555 2.0855 -0.7761 -14.0733 
0.0000 93.1000 0.0000 70.8717 -20.6010 -12.3023 -71.0061 -0.8491 88.0010 93.1001 69.8576 -8.9712 -1.2551 17.6613 6.7007 -137.5244 32.0564 170.6005 -173.3426 72.3353 -165.3485 -0.2677 -12.2215 -21.7691 -73.2128 37.4003 -141.8102 7.0347 -3.0596 -106.1259 0.0637 -0.6311 -0.2126 -1.4782 5.3547 30.0919 -128.2753 -18.3162 89.1130 10.7331 5.4524 116.7265 0.1950 0.6268 0.1396 -48.0066 15.1299 93.9132 -2.6344 36.4129 -12.7194 -5.4023 -7.5352 -0.5373 3.9898 -11.6200 12.3831 -36.2929 -14.0569 85.2541 2.7792 53.0900 0.9984 -3.2992 -20.4949 0.6248 2.2158 -0.8980 -16.3076 
0.0000 93.1000 0.0000 71.0332 -20.2716 -12.2768 -71.0069 -0.8091 87.9974 92.1591 70.0112 -8.4456 -1.1569 17.9957 6.6781 -136.1042 32.4013 169.7376 -174.4359 73.2799 -163.2838 -0.3683 -12.1142 -21.3215 -73.6535 37.2757 -141.7278 6.3924 -2.5439 -105.7403 0.0829 -0.5474 -0.2618 -1.4776 5.2039 29.0325 -130.8746 -17.9723 89.3726 11.4480 5.7731 114.8509 0.1485 0.4550 -0.0358 -48.0066 15.2881 93.0994 -3.4628 37.4387 -14.2543 -4.7170 -9.2077 -0.6845 3.4903 -12.6872 13.1426 -36.9054 -14.3327 84.7684 2.9745 52.7198 1.9135 -3.6868 -20.1772 0.7435 1.9252 -1.9261 -15.3084 
0.0000 93.1000 0.0000 70.9505 -21.0990 -11.1633 -71.0058 -0.3427 87.9956 92.9642 69.9807 -8.0057 -1.4140 18.0102 6.7072 -133.6277 32.4087 166.9702 -175.2475 73.4735 -162.5476 -0.4377 -11.8239 -20.6284 -74.0824 37.0854 -143.7478 6.2993 -2.3163 -104.3111 -0.0922 -0.0893 -0.3657 -1.4132 5.0836 28.2849 -133.1121 -17.6089 89.9393 13.1609 4.8378 111.7597 -0.0140 -0.0314 -0.3697 -48.6921 16.9510 92.9624 -2.8716 38.1920 -11.0560 -3.5209 -9.0154 -0.9039 3.0954 -11.1605 13.1815 -36.8656 -14.2685 85.0541 3.0083 51.8555 1.8063 -3.4366 -20.3951 0.8380 1.5730 -1.7298 -14.2667 
0.0000 93.1000 0.0000 70.9697 -22.3086 -11.0158 -71.0017 -0.1708 87.9963 92.2223 69.9893 -6.5885 -1.2202 18.1600 6.7858 -134.1070 32.3762 168.4394 -173.3472 73.0938 -165.2352 0.5952 -10.8648 -20.1258 -75.2677 37.5191 -143.8656 7.1752 -2.1622 -103.9309 0.0969 -0.0799 -0.2654 -0.8188 5.1172 26.9665 -134.5789 -17.3049 90.8305 15.7241 4.4979 107.9855 -0.0019 0.0341 -0.1913 -49.2073 18.8245 93.0067 -3.4832 39.3572 -5.2638 -3.0344 -6.4683 -1.2622 2.7301 -9.7729 12.5239 -36.7430 -13.5623 86.3669 2.8082 51.4005 2.0777 -2.3705 -18.8502 0.6550 2.4533 -2.7183 -14.7118 
0.0000 93.1000 0.0000 70.9041 -23.1322 -11.1019 -71.0019 -0.4602 87.9971 89.3626 70.2485 -4.1423 -1.0312 18.2933 6.9785 -134.4365 31.9116 169.1817 -174.5999 72.9136 -163.9953 0.2773 -10.6745 -19.7393 -74.9759 36.7226 -144.7554 8.0922 -2.9724 -103.4231 -0.1053 -0.3114 0.0932 -1.0079 4.9552 25.2865 -135.3143 -17.8678 91.9088 16.5097 3.8784 104.5784 0.1611 0.2726 -0.0644 -51.2391 19.9745 93.2682 -2.9213 38.1172 -0.8962 -4.2611 -2.9974 -0.3213 2.5016 -7.5742 8.5215 -38.0432 -13.3742 87.6128 3.2761 49.3933 1.3730 -2.0358 -17.3994 0.3373 1.9664 -2.7056 -13.6352 
0.0000 93.1000 0.0000 69.8318 -23.3571 -10.2366 -71.0013 -0.5729 87.9956 87.8487 69.8773 -1.8208 -1.1702 17.8677 7.1444 -133.3998 32.1067 168.0316 -172.4294 73.0025 -164.9592 -0.3652 -11.0569 -19.2996 -75.3107 36.2134 -145.8491 8.9811 -2.8247 -102.0868 -0.5658 -0.3950 0.3335 -1.4274 4.9841 24.7834 -135.8767 -17.9140 92.9711 16.9172 3.4053 101.5715 0.3059 0.4649 0.0445 -52.0225 20.1453 92.6448 -1.6519 37.3231 -4.2174 -5.1602 -2.2374 0.1814 4.0794 -10.8378 6.9389 -37.8330 -13.2574 88.2626 1.7902 46.8462 0.6690 -1.5402 -14.8817 -0.2334 1.0846 -3.6905 -11.6021 
0.0000 93.1000 0.0000 70.0382 -23.9803 -10.1316 -70.9979 -0.8248 87.9948 85.1730 69.8764 0.8348 -0.7403 17.9688 6.3897 -133.3900 32.0388 167.2501 -172.1512 73.1581 -165.7655 0.4656 -11.2402 -18.3666 -75.8927 36.3414 -145.9476 9.9504 -2.9217 -102.2309 -0.2991 -0.7421 0.4342 -1.0154 5.0124 23.9402 -136.9835 -18.0387 92.8800 18.3668 2.9258 99.7983 0.5535 0.9112 0.7455 -52.9921 18.8806 92.3634 -2.6234 36.4210 -5.6615 -5.6947 -3.1374 -0.1177 4.8148 -13.5502 6.2154 -38.7401 -14.0536 89.0061 1.9159 44.0374 -0.8520 -1.8234 -12.4232 -0.1983 1.5460 -4.2258 -7.6772 
0.0000 93.1000 0.0000 69.5371 -25.1087 -11.0107 -70.9986 -0.5201 87.9947 84.9367 70.3013 1.9449 -0.5735 18.3279 6.4380 -131.3644 32.0117 165.3507 -169.4330 73.0672 -167.8057 -0.6050 -11.3356 -18.0835 -75.9137 35.2606 -146.7774 10.9374 -3.1916 -101.1928 -0.6024 -0.3496 0.4503 -1.5743 5.0094 23.5287 -137.3622 -18.1867 93.4641 18.7485 2.8531 98.0283 0.6951 0.5397 0.3391 -53.8983 18.1762 94.1106 -2.8142 35.1065 -5.9003 -5.9098 -4.5187 0.3423 5.2489 -14.7065 6.4490 -38.9446 -14.9402 90.2519 1.0332 40.9897 -0.9218 -1.6001 -9.4849 -0.5259 0.3303 -5.4955 -4.6059 
0.0000 93.1000 0.0000 69.6874 -25.9680 -11.9920 -70.9956 -0.2624 87.9919 84.7878 70.7417 2.3893 0.0933 18.6354 6.8537 -130.4756 32.1413 163.2242 -165.4121 73.4745 -171.1172 0.6936 -11.4392 -18.2101 -75.2405 35.0062 -147.8484 11.8795 -3.3165 -100.4244 -0.1708 -0.4119 0.3732 -0.8219 5.1836 23.7392 -137.9556 -17.7935 94.0012 18.3201 2.2320 96.9483 0.6662 0.6009 0.5294 -53.9092 17.0036 97.7323 -2.7923 34.6441 -6.1305 -4.9255 -6.1695 -0.7302 5.2168 -14.2779 7.0238 -39.7601 -15.8344 90.6114 0.7457 37.4502 -0.9508 -3.0641 -4.5536 -0.0886 0.8342 -8.2621 -3.4845 
0.0000 93.1000 0.0000 69.0320 -25.9769 -11.9203 -70.9952 -0.0659 87.9925 82.8459 70.5078 2.9386 0.3050 18.7549 6.9646 -132.3641 31.9453 165.0665 -167.5422 73.2566 -170.1637 0.7704 -11.8901 -18.0899 -75.6595 34.8921 -147.8537 13.1384 -3.3513 -100.4408 -0.0920 -0.2518 0.4122 -0.6925 5.2867 23.8127 -139.0277 -18.0532 93.7428 18.7684 1.9245 96.7384 0.6494 0.4975 0.5431 -54.0007 15.2690 100.5169 -3.2191 34.2575 -5.3456 -4.3086 -7.7010 -1.0285 4.4240 -12.9544 6.8333 -40.4646 -17.0593 88.7054 -0.7302 32.7722 2.9421 -3.4750 -0.9338 -0.1825 1.1172 -8.3845 -3.5627 
0.0000 93.1000 0.0000 69.0951 -26.9750 -12.0414 -70.9927 0.5414 87.9930 84.8244 70.9270 0.9541 0.1625 18.9396 7.3408 -131.4727 32.0440 163.2038 -164.4657 73.8852 -172.2341 0.6961 -12.1113 -18.0286 -75.3224 34.8833 -147.8282 13.4093 -2.9530 -100.3222 -0.1520 0.3761 -0.0145 -0.6328 5.0508 24.4808 -140.1017 -18.3062 93.7217 17.7258 2.1430 97.8492 0.0821 -0.1684 0.1701 -53.9351 14.2516 101.9269 -2.9472 35.4670 -6.9548 -4.3090 -9.6570 -1.3942 4.0563 -10.8873 7.2896 -40.8581 -18.6116 85.0643 -2.2159 30.0364 5.1302 -2.8543 1.5077 0.0726 1.1986 -7.0812 -3.1377 
0.0000 93.1000 0.0000 69.2105 -27.2834 -12.1370 -70.9962 0.2706 87.9929 85.9199 70.8911 -0.8134 0.1294 18.7306 7.4990 -130.4705 32.0671 162.2468 -164.5973 74.0188 -172.5238 0.3251 -12.2393 -17.8430 -74.9021 34.4366 -147.7920 13.8486 -3.1587 -101.0216 -0.2032 0.2328 0.0091 -0.8525 5.0228 24.9475 -139.6410 -18.9266 93.6854 17.0880 2.9215 98.9436 0.1127 -0.0882 0.2378 -54.1291 13.8653 103.1256 -2.9182 36.2820 -9.1353 -3.8283 -10.9565 -1.3070 3.8055 -11.6383 8.9382 -40.9119 -19.6216 82.0745 -2.0860 28.5797 4.1960 -2.9964 2.9264 -0.1384 0.0847 -5.3452 -1.7421 
0.0000 93.1000 0.0000 69.2244 -28.0103 -12.5466 -70.9961 0.1240 87.9966 85.7351 70.9898 -1.2120 0.6021 18.8680 8.0673 -130.4852 32.1936 163.3608 -164.3434 73.9509 -171.3126 0.7591 -11.9887 -18.3179 -74.9851 34.2310 -147.7765 14.0054 -3.1972 -101.2222 -0.1337 0.0228 0.1918 -0.6271 5.1651 25.4826 -139.7580 -18.8707 92.6405 16.9606 3.3163 99.8680 0.1194 0.1330 0.3040 -53.1518 13.7966 102.8854 -3.2474 37.3060 -8.5643 -3.5370 -12.6725 -1.6661 3.5550 -10.6852 9.2222 -40.8289 -19.1197 81.0126 0.0679 30.0122 2.2051 -2.1585 2.6927 -0.2425 0.0851 -5.4349 -0.0658 
0.0000 93.1000 0.0000 68.9826 -29.0869 -12.5946 -70.9974 0.1525 87.9958 86.5854 71.1940 -2.3867 0.1921 18.7932 7.9767 -131.3669 32.1525 163.6149 -166.3901 73.8190 -170.3011 0.2976 -11.9325 -18.7982 -74.9636 34.0399 -147.0681 14.2703 -3.9560 -101.4570 -0.1255 0.1232 0.1646 -0.8561 5.1841 25.9112 -139.1013 -18.7462 91.6458 17.2442 3.7583 101.8779 0.0909 0.0802 0.2483 -52.3009 13.1559 102.0247 -2.9726 38.1596 -7.0603 -3.2849 -13.6022 -1.6065 3.2965 -9.8872 9.7734 -40.7853 -17.7146 81.0795 0.8102 32.0880 1.9967 -1.4230 0.9479 -0.1829 -0.4668 -6.9334 2.4783 
0.0000 93.1000 0.0000 69.2041 -29.9748 -12.3188 -70.9940 0.6180 87.9983 87.9301 71.5090 -3.9002 0.0090 18.8688 8.9449 -131.4185 31.8193 163.2861 -167.4651 73.9950 -169.0745 0.7756 -12.0042 -18.8991 -73.9301 34.0311 -145.4189 15.2553 -4.1994 -102.1550 -0.1005 0.3783 -0.0232 -0.5429 5.1595 27.0217 -138.7771 -17.9194 91.7619 16.0077 3.9594 102.8812 -0.2217 -0.1407 0.0031 -51.9548 12.2090 101.7271 -2.8917 39.3701 -5.9338 -2.5415 -14.2669 -2.1941 3.1336 -9.7468 9.9839 -39.9353 -16.9783 80.7517 0.8000 35.9177 -0.0329 -2.1355 -0.7163 0.1833 0.2858 -9.1582 2.2256 
0.0000 93.1000 0.0000 70.0195 -29.9335 -12.4737 -70.9903 1.0508 87.9981 88.7128 71.5310 -5.1119 -0.0481 18.8609 9.0854 -130.3866 32.0600 163.3309 -167.5707 74.1263 -168.0920 0.4752 -12.0333 -19.0778 -73.1618 34.9145 -144.9348 16.0219 -4.0899 -102.5206 -0.1303 0.8614 -0.3605 -0.7024 4.8957 28.2167 -137.3276 -17.0603 90.8422 16.4758 4.3853 104.7999 -0.5047 -0.6676 -0.4140 -52.1702 12.0124 101.6052 -2.6352 39.2245 -6.7637 -2.7462 -14.3625 -2.2390 3.3319 -10.3429 10.7238 -40.5882 -17.3330 78.7819 0.7379 37.2095 -0.0505 -2.3609 -0.9194 0.3463 0.5081 -9.8554 1.3566 
0.0000 93.1000 0.0000 71.0093 -29.4424 -11.6056 -70.9910 0.5784 87.9963 88.7892 71.4723 -5.2192 -0.1999 18.8789 8.8374 -130.4152 31.9617 162.9493 -169.2780 74.1763 -166.2199 0.4527 -12.0601 -18.8834 -72.7438 35.1107 -143.7003 15.8448 -4.3185 -103.3270 -0.0073 0.4725 -0.2432 -0.8222 4.9176 28.8561 -136.9769 -16.1232 89.6062 15.8958 5.0024 105.9648 -0.3037 -0.3182 -0.1523 -52.2535 12.0462 100.8038 -3.1015 39.3633 -6.2249 -2.7425 -13.9283 -2.1117 2.9183 -9.8772 11.2987 -41.8764 -18.0835 77.1950 0.6088 35.4040 -0.1571 -1.9025 -0.1946 0.1739 -0.0176 -8.1564 0.7320 
0.0000 93.1000 0.0000 70.9163 -29.2174 -10.4729 -70.9898 0.4113 87.9967 86.9388 71.8547 -2.9276 0.3763 18.9379 8.8854 -129.3982 31.9593 163.0844 -169.1680 74.2303 -167.3754 0.5748 -11.8485 -19.1058 -71.1400 35.2729 -143.9183 15.9061 -4.1374 -103.0911 0.1086 0.2817 -0.1789 -0.8459 4.8588 30.0119 -135.8069 -14.3248 88.7913 14.7589 4.9626 106.8097 -0.2773 -0.1591 -0.1491 -52.0409 12.1001 99.9813 -3.2256 40.2613 -6.0550 -2.3980 -13.9930 -2.1044 2.7808 -9.8422 11.0598 -42.7182 -17.8057 76.8700 0.7692 34.0703 -0.0736 -1.4197 -0.0793 0.1562 0.1825 -8.0727 0.7761 
0.0000 93.1000 0.0000 71.1751 -29.0253 -10.4035 -70.9924 -0.0866 87.9949 84.8951 71.6790 -1.0649 0.7884 18.9563 8.1607 -129.4381 31.8716 161.1927 -167.1371 74.0552 -169.5230 0.3636 -11.8361 -19.1388 -70.8759 35.3245 -144.6129 16.2417 -4.3080 -102.3030 0.0920 -0.1219 0.1188 -1.0231 4.7448 30.9810 -135.9210 -13.3497 88.9216 14.1004 4.3808 107.7711 -0.1023 0.1904 0.0285 -52.1594 12.0779 99.8363 -2.9637 40.1978 -6.9061 -1.9915 -13.9571 -1.9963 2.8724 -9.9463 12.3004 -43.8618 -17.6854 76.9765 0.6708 33.0684 -1.2117 -1.2252 0.0869 -0.0795 0.0752 -8.4061 2.7545 
0.0000 93.1000 0.0000 71.0704 -29.0330 -9.3962 -70.9938 -0.0114 87.9955 82.7774 71.3075 1.0358 1.1597 18.9564 7.9807 -129.3837 31.6374 161.2448 -165.0880 74.0477 -170.1911 -0.1034 -12.0411 -19.0456 -70.4260 35.7694 -143.7381 16.7695 -4.7115 -103.1430 0.2043 -0.0265 0.1374 -1.3332 4.8384 31.7264 -135.9199 -13.1946 88.7865 13.2349 4.0440 107.9937 -0.2315 0.0629 -0.2125 -52.2773 12.0678 99.7561 -3.0359 40.2902 -6.9305 -1.8136 -14.1104 -1.8667 2.9591 -10.1197 12.0681 -44.7608 -17.2250 76.9954 0.7565 32.1281 -1.2767 -1.1158 -0.1607 -0.1960 0.0619 -7.4701 2.9300 
